<?xml version="1.0" ?><!DOCTYPE svg  PUBLIC '-//W3C//DTD SVG 1.1//EN'  'http://www.w3.org/Graphics/SVG/1.1/DTD/svg11.dtd' [
	<!ENTITY stroke_color "#666666">
	<!ENTITY fill_color "#ffffff">
]><svg xmlns="http://www.w3.org/2000/svg" xmlns:xlink="http://www.w3.org/1999/xlink" viewBox="0 0 55 55" shape-rendering="geometricPrecision" text-rendering="geometricPrecision">
<g transform="matrix(2.182741 0 0 2.039547-31.824704-28.061785)">
<path d="M3865.909091,4697.916667c-2.840909-12.731482-6.818182-94.907408-9.659091-182.870371-8.522727-241.319444-42.045455-428.24074-119.318182-652.777777-40.909091-121.527778-40.909091-124.421297-22.159091-138.310186c57.386364-42.24537,156.25-41.087963,318.181818,2.314815c143.181819,37.615741,406.818182,134.837963,406.818182,149.884259c0,6.944445-14.772727,21.990741-33.522727,32.986112-53.409091,32.986111-187.5,178.819444-248.295455,270.833333-75,112.847222-157.954545,273.148148-218.181818,417.24537-26.704545,64.814815-52.840909,118.634259-58.522727,120.949074-6.25,1.736111-12.5-6.944444-15.340909-20.254629Zm63.068182-157.986111c89.772727-217.013889,235.227272-445.023149,364.204545-572.916667c48.863637-49.189815,86.931818-90.277778,84.659091-92.013889-9.090909-8.101852-342.613636-116.898148-397.727273-130.208333-76.136363-16.782408-184.090909-18.518519-227.840909-4.050926-30.113636,10.416666-31.25,12.152778-18.181818,38.194444c26.704546,52.083334,84.659091,229.166667,105.113636,325.231482c26.704546,122.685185,50.568182,326.967592,50.568182,429.976852c0,87.962962,5.113637,87.962962,39.204546,5.787037Zm0,0" transform="matrix(.006875 0 0-.00675 0 47.25)" fill="&fill_color;" stroke="&stroke_color;" stroke-width="3.5"/>
<path d="M4289.772727,3721.064815c0-34.143519,42.045455-155.092593,80.113637-230.902778C4452.272727,3325.810185,4584.090909,3195.023148,4750,3109.953704l44.886364-23.148148-72.727273-33.564815c-101.136364-45.138889-289.204546-108.217593-392.045455-130.208334-125-27.199074-378.977272-24.305555-518.181818,5.787037C3618.75,2969.907407,3450,3042.24537,3380.113636,3115.162037L3350,3145.833333l93.181818,64.236111c138.636364,97.800926,254.545455,218.171297,298.863637,310.185186c19.886363,40.509259,39.204545,86.805555,42.045454,103.009259c10.795455,47.453704-11.363636,28.935185-32.954545-30.092593-42.045455-116.319444-139.204546-221.064815-336.363637-363.425926-54.545454-38.773148-101.704545-75.810185-103.977272-81.597222-5.681819-17.939815,93.181818-102.430555,165.340909-140.046296c267.045454-140.046296,642.045454-175.925926,961.931818-93.171296C4567.045455,2947.916667,4850,3064.814815,4850,3085.069444c0,6.944445-18.75,20.833334-42.045455,30.671297-65.90909,29.513889-176.704545,105.324074-240.90909,164.351852-106.25,96.643518-197.159091,248.842592-234.09091,390.625-10.227272,40.509259-22.727272,69.444444-30.113636,69.444444-6.818182,0-13.068182-9.259259-13.068182-19.097222Zm0,0" transform="matrix(.006875 0 0-.00675 0 47.25)" fill="&fill_color;" stroke="&stroke_color;" stroke-width="3.5"/>
<path d="M4726.136364,2961.226852c-7.386364-10.995371,136.931818-195.023148,188.068181-239.00463c21.022728-17.939815,36.931819-35.300926,34.659091-36.458333-1.704545-1.736111-39.772727-21.990741-84.659091-43.981482C4601.136364,2509.837963,4250,2399.884259,3827.840909,2315.972222c-298.863636-60.185185-481.818182-70.023148-644.886364-37.037037-85.227272,17.939815-213.068181,65.972222-213.068181,79.861111c1.136363,3.472223,35.227272,28.935185,77.840909,58.449074C3143.181818,2480.902778,3250,2575.810185,3318.75,2655.092593c50,57.87037,124.431818,192.129629,137.5,247.685185c11.931818,51.504629-11.363636,27.199074-48.295455-50.925926-71.022727-146.990741-201.704545-284.722222-405.113636-425.925926-46.022727-31.828704-82.954545-61.921296-82.954545-67.12963c0-15.046296,73.295454-57.87037,136.363636-79.861111c178.977273-63.078704,429.545455-65.972222,723.863636-8.101852c301.136364,59.027778,613.068182,144.097223,828.977273,225.115741C4768.75,2556.134259,5000,2667.24537,5000,2684.027778c0,5.787037-22.727273,31.25-50,53.819444-27.840909,24.305556-85.227273,86.226852-127.272727,138.310185-73.863637,92.013889-85.795455,103.00926-96.590909,85.069445Zm0,0" transform="matrix(.006875 0 0-.00675 0 47.25)" fill="&fill_color;" stroke="&stroke_color;" stroke-width="3.5"/>
<path d="M4710.227273,2417.824074c0-19.675926,223.863636-348.958333,321.590909-474.537037C5114.772727,1837.962963,5256.25,1685.763889,5318.75,1635.99537c18.181818-15.046296,32.386364-27.777777,30.113636-30.092592-15.909091-15.625-406.818181-141.782408-538.636363-174.189815-371.022728-90.856482-467.045455-102.430556-928.409091-108.796296-405.681818-5.787037-584.659091,4.050926-759.090909,42.24537-227.840909,48.032407-508.522728,162.037037-601.704546,243.634259l-44.886363,38.194445L2531.25,1664.930556c158.522727,52.083333,327.840909,159.143518,431.818182,276.041666C3014.204545,1998.263889,3100,2141.203704,3100,2168.981481c0,26.041667-18.181818,5.787038-55.113636-60.763888-101.704546-182.291667-306.818182-339.120371-547.159091-418.402778-38.636364-11.574074-67.613637-26.620371-67.613637-34.722222c0-24.305556,102.840909-104.166667,193.75-151.041667c184.090909-94.907407,427.272728-168.981482,656.25-197.916667c264.772728-34.143518,813.068182-28.935185,1106.818182,8.680556c163.068182,21.990741,381.25,68.287037,543.181818,115.162037c192.613637,56.134259,460.795455,152.199074,467.045455,167.24537c2.840909,6.944445-10.227273,24.884259-28.977273,38.773148-75,60.763889-249.431818,247.106482-330.113636,354.745371-47.159091,62.5-135.227273,186.342592-194.318182,273.148148-102.840909,151.041667-133.522727,186.342592-133.522727,153.935185Zm0,0" transform="matrix(.006875 0 0-.00675 0 47.25)" fill="&fill_color;" stroke="&stroke_color;" stroke-width="3.5"/>
</g>
</svg>