<svg xmlns="http://www.w3.org/2000/svg" width="1200" height="1000" viewBox="0 0 800 600">
    <g transform="translate(0,600) scale(0.1,-0.1)" fill="#FFFFFF" stroke="#FFFFFF" stroke-width="200">
        <path d="M3866 4698 c-3 -13 -7 -95 -10 -183 -8 -241 -42 -428 -119 -653 -41 -121 -41 -124 -22 -138 57 -42 156 -41 318 2 143 38 407 135 407 150 0 7 -15 22 -34 33 -53 33 -187 179 -248 271 -75 113 -158 273 -218 417 -27 65 -53 119 -59 121 -6 2 -12 -7 -15 -20z m63 -158 c90 -217 235 -445 364 -573 49 -49 87 -90 85 -92 -9 -8 -343 -117 -398 -130 -76 -17 -184 -19 -228 -4 -30 10 -31 12 -18 38 27 52 85 229 105 325 27 123 51 327 51 430 0 88 5 88 39 6z"/>
        <path d="M4290 3721 c0 -34 42 -155 80 -231 82 -164 214 -295 380 -380 l45 -23 -73 -34 c-101 -45 -289 -108 -392 -130 -125 -27 -379 -24 -518 6 -193 41 -362 113 -432 186 l-30 31 93 64 c139 98 255 218 299 310 20 41 39 87 42 103 11 48 -11 29 -33 -30 -42 -116 -139 -221 -336 -363 -55 -39 -102 -76 -104 -82 -6 -18 93 -102 165 -140 267 -140 642 -176 962 -93 129 33 412 150 412 170 0 7 -19 21 -42 31 -66 29 -177 105 -241 164 -106 97 -197 249 -234 391 -10 40 -23 69 -30 69 -7 0 -13 -9 -13 -19z"/>
        <path d="M4726 2961 c-7 -11 137 -195 188 -239 21 -18 37 -35 35 -36 -2 -2 -40 -22 -85 -44 -263 -132 -614 -242 -1036 -326 -299 -60 -482 -70 -645 -37 -85 18 -213 66 -213 80 1 3 35 29 78 58 95 64 202 159 271 238 50 58 124 192 137 248 12 51 -11 27 -48 -51 -71 -147 -202 -285 -405 -426 -46 -32 -83 -62 -83 -67 0 -15 73 -58 136 -80 179 -63 430 -66 724 -8 301 59 613 144 829 225 160 60 391 171 391 188 0 6 -23 31 -50 54 -28 24 -85 86 -127 138 -74 92 -86 103 -97 85z"/>
        <path d="M4710 2418 c0 -20 224 -349 322 -475 83 -105 224 -257 287 -307 18 -15 32 -28 30 -30 -16 -16 -407 -142 -539 -174 -371 -91 -467 -103 -928 -109 -406 -6 -585 4 -759 42 -228 48 -509 162 -602 244 l-45 38 55 18 c159 52 328 159 432 276 51 57 137 200 137 228 0 26 -18 6 -55 -61 -102 -182 -307 -339 -547 -418 -39 -12 -68 -27 -68 -35 0 -24 103 -104 194 -151 184 -95 427 -169 656 -198 265 -34 813 -29 1107 9 163 22 381 68 543 115 193 56 461 152 467 167 3 7 -10 25 -29 39 -75 61 -249 247 -330 355 -47 62 -135 186 -194 273 -103 151 -134 186 -134 154z"/>
    </g>
</svg>
